General
Complete name : Lesbian _twohorny girl _ sex.flv
Format : Flash Video
File size : 8.97 MiB
Duration : 2mn 26s
Overall bit rate : 514 Kbps
Tagged date : UTC 2012-03-22 23:53:20
Writing application : Lavf53.31.100


Video
Format : AVC
Format/Info : Advanced Video Codec
Format profile : High@L3.0
Format settings, CABAC : Yes
Format settings, ReFrames : 4 frames
Codec ID : 7
Duration : 2mn 26s
Bit rate : 400 Kbps
Width : 542 pixels
Height : 406 pixels
Display aspect ratio : 4:3
Frame rate mode : Constant
Frame rate : 25.000 fps
Color space : YUV
Chroma subsampling : 4:2:0
Bit depth : 8 bits
Scan type : Progressive
Bits/(Pixel*Frame) : 0.073
Stream size : 7.14 MiB (80%)
Writing library : x264 core 120


Audio
Format : AAC
Format/Info : Advanced Audio Codec
Format profile : LC
Codec ID : 10
Duration : 2mn 26s
Bit rate : 93.8 Kbps
Channel(s) : 2 channels
Channel positions : Front: L R
Sampling rate : 44.1 KHz
Compression mode : Lossy
Delay relative to video : 40ms
Stream size : 1.69 MiB (19%)

